{
	"asset":{
		"generator":"Khronos glTF Blender I/O v4.0.44",
		"version":"2.0"
	},
	"scene":0,
	"scenes":[
		{
			"name":"Scene",
			"nodes":[
				4
			]
		}
	],
	"nodes":[
		{
			"name":"Cover.bottom",
			"rotation":[
				9.974800718737242e-08,
				9.974800718737242e-08,
				-0.7071067690849304,
				0.7071067690849304
			],
			"scale":[
				1,
				0.9999999403953552,
				1
			],
			"translation":[
				-1.973278522491455,
				1.2345163822174072,
				1.655038772696571e-08
			]
		},
		{
			"name":"Cover.top",
			"rotation":[
				-0.5000001192092896,
				-0.5,
				0.49999991059303284,
				0.5
			],
			"translation":[
				0,
				2.3835129737854004,
				-3.3306690738754696e-15
			]
		},
		{
			"children":[
				1
			],
			"name":"Cover.side",
			"rotation":[
				0.70710688829422,
				0,
				-0.7071066498756409,
				0
			],
			"translation":[
				-1.973278522491455,
				1.1829389333724976,
				1.655038772696571e-08
			]
		},
		{
			"mesh":0,
			"name":"Plane",
			"skin":0
		},
		{
			"children":[
				3,
				0,
				2
			],
			"name":"Armature"
		}
	],
	"materials":[
		{
			"doubleSided":true,
			"name":"TexturePixel",
			"pbrMetallicRoughness":{
				"baseColorTexture":{
					"index":0
				},
				"metallicFactor":0,
				"roughnessFactor":0.5
			}
		}
	],
	"meshes":[
		{
			"name":"Plane",
			"primitives":[
				{
					"attributes":{
						"POSITION":0,
						"NORMAL":1,
						"TEXCOORD_0":2,
						"JOINTS_0":3,
						"WEIGHTS_0":4
					},
					"indices":5,
					"material":0
				}
			]
		}
	],
	"textures":[
		{
			"sampler":0,
			"source":0
		}
	],
	"images":[
		{
			"mimeType":"image/png",
			"name":"BookTexture",
			"uri":"BookTexture.png"
		}
	],
	"skins":[
		{
			"inverseBindMatrices":6,
			"joints":[
				0,
				2,
				1
			],
			"name":"Armature"
		}
	],
	"accessors":[
		{
			"bufferView":0,
			"componentType":5126,
			"count":104,
			"max":[
				6.375002861022949,
				1.3125035762786865,
				6.000000476837158
			],
			"min":[
				-2.06250262260437,
				-1.312501072883606,
				-5.939029216766357
			],
			"type":"VEC3"
		},
		{
			"bufferView":1,
			"componentType":5126,
			"count":104,
			"type":"VEC3"
		},
		{
			"bufferView":2,
			"componentType":5126,
			"count":104,
			"type":"VEC2"
		},
		{
			"bufferView":3,
			"componentType":5121,
			"count":104,
			"type":"VEC4"
		},
		{
			"bufferView":4,
			"componentType":5126,
			"count":104,
			"type":"VEC4"
		},
		{
			"bufferView":5,
			"componentType":5123,
			"count":228,
			"type":"SCALAR"
		},
		{
			"bufferView":6,
			"componentType":5126,
			"count":3,
			"type":"MAT4"
		}
	],
	"bufferViews":[
		{
			"buffer":0,
			"byteLength":1248,
			"byteOffset":0,
			"target":34962
		},
		{
			"buffer":0,
			"byteLength":1248,
			"byteOffset":1248,
			"target":34962
		},
		{
			"buffer":0,
			"byteLength":832,
			"byteOffset":2496,
			"target":34962
		},
		{
			"buffer":0,
			"byteLength":416,
			"byteOffset":3328,
			"target":34962
		},
		{
			"buffer":0,
			"byteLength":1664,
			"byteOffset":3744,
			"target":34962
		},
		{
			"buffer":0,
			"byteLength":456,
			"byteOffset":5408,
			"target":34963
		},
		{
			"buffer":0,
			"byteLength":192,
			"byteOffset":5864
		}
	],
	"samplers":[
		{
			"magFilter":9728,
			"minFilter":9984
		}
	],
	"buffers":[
		{
			"byteLength":6056,
			"uri":"OurBook.bin"
		}
	]
}
